<?xml version="1.0" standalone="no"?>
<!DOCTYPE svg PUBLIC "-//W3C//DTD SVG 20010904//EN"
 "http://www.w3.org/TR/2001/REC-SVG-20010904/DTD/svg10.dtd">
<svg version="1.0" xmlns="http://www.w3.org/2000/svg"
 width="384.000000pt" height="384.000000pt" viewBox="0 0 384.000000 384.000000"
 preserveAspectRatio="xMidYMid meet">
<metadata>
Created by potrace 1.14, written by Peter Selinger 2001-2017
</metadata>
<g transform="translate(0.000000,384.000000) scale(0.100000,-0.100000)"
fill="#000000" stroke="none">
<path d="M2267 3823 c-15 -10 -35 -35 -44 -55 -9 -21 -20 -38 -23 -38 -4 0
-31 8 -61 19 -75 25 -116 19 -156 -24 -35 -37 -41 -72 -23 -120 21 -56 189
-195 259 -215 128 -36 270 214 206 365 -21 52 -46 73 -92 80 -27 4 -46 0 -66
-12z"/>
<path d="M1406 3535 c-86 -42 -139 -120 -138 -202 2 -71 51 -138 108 -149 l33
-6 -54 -54 c-64 -65 -114 -162 -122 -240 -3 -30 0 -96 8 -147 17 -116 15 -139
-20 -207 -61 -118 -69 -196 -27 -280 28 -55 63 -91 114 -115 l33 -16 -30 -37
c-30 -38 -144 -164 -236 -262 -60 -63 -117 -129 -160 -184 -16 -21 -35 -44
-40 -50 -24 -25 -127 -187 -173 -273 -89 -164 -178 -407 -216 -590 -17 -79
-18 -83 -42 -243 -3 -19 -7 -104 -10 -188 -5 -182 5 -213 83 -259 l48 -28 245
1 c350 1 1010 19 1055 28 11 3 23 5 27 5 19 2 58 55 64 89 13 62 7 262 -12
447 -13 127 -16 151 -29 235 -2 14 -7 45 -11 70 -27 181 -52 295 -105 483 -48
170 -53 212 -31 267 23 58 29 61 64 28 38 -35 114 -75 154 -81 20 -3 30 -11
37 -33 5 -16 16 -37 24 -46 57 -65 244 -71 330 -10 16 10 54 22 88 26 36 4 86
20 127 40 37 18 68 31 69 27 0 -3 2 -52 4 -108 4 -129 17 -148 94 -141 28 3
51 3 51 0 0 -3 -13 -46 -29 -96 -16 -50 -32 -108 -35 -130 -4 -21 -8 -41 -10
-45 -3 -3 -7 -27 -11 -51 -3 -25 -8 -52 -10 -60 -19 -71 -28 -480 -12 -565 14
-75 29 -120 49 -148 11 -15 19 -29 17 -30 -2 -1 -34 -17 -72 -36 -161 -80
-158 -115 13 -151 81 -17 265 -18 344 -1 100 22 162 106 122 166 -13 19 -13
29 -1 76 8 30 14 63 14 74 0 24 8 190 15 298 3 42 7 85 10 95 3 9 8 31 10 47
12 69 21 97 72 230 30 77 59 150 64 162 39 93 59 274 39 348 -8 26 -7 41 0 48
26 26 1 161 -54 292 -7 17 -27 66 -46 110 -77 184 -200 406 -300 536 -53 71
-58 81 -57 127 l0 50 44 11 c88 22 171 142 176 254 11 259 -200 466 -473 465
-82 0 -242 -38 -313 -74 -130 -66 -166 -181 -83 -272 20 -22 20 -24 4 -90 -20
-82 -16 -244 7 -318 31 -99 96 -164 165 -164 72 -1 84 -29 96 -226 6 -103 15
-189 24 -240 8 -40 6 -48 -19 -83 -35 -48 -85 -89 -147 -120 -26 -14 -61 -37
-78 -52 -43 -40 -74 -49 -116 -35 -45 16 -122 68 -203 138 l-31 26 22 24 c53
58 50 144 -9 277 -62 139 -75 205 -53 259 19 43 49 56 132 57 65 0 75 3 102
29 47 45 56 84 56 246 0 136 -21 294 -44 325 -4 5 -6 28 -5 50 4 94 -77 179
-229 239 -78 31 -171 39 -233 21 l-41 -12 -21 43 c-46 93 -164 128 -266 79z"/>
</g>
</svg>
